<svg id="Capa_1" enable-background="new 0 0 512 512" height="512" viewBox="0 0 512 512" width="512" xmlns="http://www.w3.org/2000/svg" xmlns:xlink="http://www.w3.org/1999/xlink"><linearGradient id="SVGID_1_" gradientUnits="userSpaceOnUse" x1="256" x2="256" y1="512" y2="0"><stop offset="0" stop-color="#5558ff"/><stop offset="1" stop-color="#00c0ff"/></linearGradient><g><g><g><path d="m497 302h-46v-107c0-63.915-11.692-113.53-34.751-147.467-20.828-30.652-51.103-47.533-85.249-47.533-26.684 0-52.43 9.788-75 23.821-22.571-14.033-48.317-23.821-75-23.821-34.146 0-64.421 16.881-85.249 47.533-23.059 33.937-34.751 83.552-34.751 147.467v107h-46c-8.284 0-15 6.716-15 15s6.716 15 15 15h16v48.673c0 16.254-4.578 32.189-11.452 51.114-14.022 38.605 14.753 80.213 56.452 80.213 41.729 0 70.466-41.631 56.452-80.213-6.874-18.925-11.452-34.86-11.452-51.114v-48.673h15c8.284 0 15-6.716 15-15s-6.716-15-15-15h-45v-107c0-103.318 33.645-165 90-165 15.359 0 32.005 4.667 48.581 13.249-7.276 6.228-14.295 13.002-20.927 20.239-36.101 39.394-57.654 88.557-57.654 131.512 0 57.897 47.103 105 105 105s105-47.103 105-105c0-42.955-21.553-92.118-57.654-131.511-6.632-7.237-13.651-14.012-20.927-20.239 16.576-8.583 33.222-13.25 48.581-13.25 56.355 0 90 61.682 90 165v107h-45c-8.284 0-15 6.716-15 15s6.716 15 15 15h15v48.673c0 16.254-4.578 32.189-11.452 51.114-14.022 38.605 14.753 80.213 56.452 80.213 41.729 0 70.466-41.631 56.452-80.213-6.874-18.925-11.452-34.86-11.452-51.114v-48.673h16c8.284 0 15-6.716 15-15s-6.716-15-15-15zm-392.745 140.029c6.937 19.097-7.367 39.971-28.255 39.971-20.892 0-35.189-20.876-28.255-39.971 6.884-18.953 13.255-39.504 13.255-61.356v-48.673h30v48.673c0 21.852 6.371 42.403 13.255 61.356zm226.745-247.029c0 41.355-33.645 75-75 75s-75-33.645-75-75c0-35.649 18.606-77.235 49.771-111.242 8.032-8.764 16.515-16.599 25.229-23.409 8.714 6.81 17.197 14.645 25.229 23.409 31.165 34.007 49.771 75.593 49.771 111.242zm105 287c-20.892 0-35.189-20.876-28.255-39.971 6.884-18.953 13.255-39.504 13.255-61.356v-48.673h30v48.673c0 21.852 6.371 42.403 13.255 61.356 6.937 19.097-7.367 39.971-28.255 39.971z" fill="url(#SVGID_1_)"/></g></g></g></svg>